<svg width="70" height="70" viewBox="0 0 70 70" fill="none" xmlns="http://www.w3.org/2000/svg">
  <circle cx="35" cy="35" r="30" fill="#EEF2FF"/>
  <path d="M23 23C23 20.2386 25.2386 18 28 18H42C44.7614 18 47 20.2386 47 23V47C47 49.7614 44.7614 52 42 52H28C25.2386 52 23 49.7614 23 47V23Z" fill="#4F46E5" fill-opacity="0.2"/>
  <path d="M28 24H42" stroke="#4F46E5" stroke-width="2" stroke-linecap="round"/>
  <path d="M28 30H42" stroke="#4F46E5" stroke-width="2" stroke-linecap="round"/>
  <path d="M28 36H38" stroke="#4F46E5" stroke-width="2" stroke-linecap="round"/>
  <path d="M28 42H35" stroke="#4F46E5" stroke-width="2" stroke-linecap="round"/>
  <path d="M28 48H32" stroke="#4F46E5" stroke-width="2" stroke-linecap="round"/>
  <circle cx="49" cy="28" r="8" fill="#4F46E5"/>
  <path d="M46 28L48 30L52 26" stroke="white" stroke-width="2" stroke-linecap="round" stroke-linejoin="round"/>
  <path fill-rule="evenodd" clip-rule="evenodd" d="M35 18C37.5886 18 39.8595 19.0612 41.5139 20.7843C42.0955 21.3904 43.0624 21.3953 43.6424 20.7842C45.2771 19.0611 47.548 18 50.1366 18C55.2951 18 59.5 22.2525 59.5 27.4683C59.5 31.4773 56.0008 35.8517 52.0654 39.3022C48.1301 42.7526 43.887 45.3855 42.1503 46.5268C41.0016 47.2829 39.5907 47.2828 38.4421 46.5268C36.7054 45.3855 32.5016 42.7526 28.5663 39.3022C24.6309 35.8517 21 31.4773 21 27.4683C21 22.2525 25.3415 18 30.5 18C33.0886 18 35.3595 19.0612 37.0139 20.7843C37.5955 21.3904 38.5624 21.3953 39.1424 20.7842C40.7771 19.0611 43.048 18 45.6366 18" stroke="#4F46E5" stroke-width="2" stroke-linejoin="round"/>
</svg>
