<svg width="70" height="70" viewBox="0 0 70 70" fill="none" xmlns="http://www.w3.org/2000/svg">
  <circle cx="35" cy="35" r="30" fill="#EEF2FF"/>
  <rect x="14" y="18" width="42" height="34" rx="2" fill="#4F46E5" fill-opacity="0.1"/>
  <path d="M14 24H56" stroke="#4F46E5" stroke-width="2" stroke-linecap="round"/>
  <path d="M17 21H19" stroke="#4F46E5" stroke-width="2" stroke-linecap="round"/>
  <path d="M22 21H24" stroke="#4F46E5" stroke-width="2" stroke-linecap="round"/>
  <path d="M27 21H29" stroke="#4F46E5" stroke-width="2" stroke-linecap="round"/>
  <path d="M18 40L27 36L33 41L42 32L48 38L52 34" stroke="#4F46E5" stroke-width="2" stroke-linecap="round" stroke-linejoin="round"/>
  <circle cx="27" cy="36" r="3" fill="white" stroke="#4F46E5" stroke-width="2"/>
  <circle cx="33" cy="41" r="3" fill="white" stroke="#4F46E5" stroke-width="2"/>
  <circle cx="42" cy="32" r="3" fill="white" stroke="#4F46E5" stroke-width="2"/>
  <circle cx="52" cy="34" r="3" fill="white" stroke="#4F46E5" stroke-width="2"/>
  <circle cx="51" cy="19" r="8" fill="#4F46E5"/>
  <path d="M48 22L50.5858 19.4142C50.9609 19.0391 51.4696 18.8284 52 18.8284C52.5304 18.8284 53.0391 19.0391 53.4142 19.4142L56 22" stroke="white" stroke-width="2" stroke-linecap="round" stroke-linejoin="round"/>
  <path d="M52 19V26" stroke="white" stroke-width="2" stroke-linecap="round" stroke-linejoin="round"/>
</svg>
